<?xml version="1.0" encoding="UTF-8"?>
<svg xmlns="http://www.w3.org/2000/svg" xmlns:xlink="http://www.w3.org/1999/xlink" width="810pt" height="809.999993pt" viewBox="0 0 810 809.999993" version="1.2">
<defs>
<clipPath id="clip1">
  <path d="M 75.453125 75.453125 L 734.703125 75.453125 L 734.703125 734.703125 L 75.453125 734.703125 Z M 75.453125 75.453125 "/>
</clipPath>
<clipPath id="clip2">
  <path d="M 649.78125 351.980469 L 671.050781 351.980469 L 671.050781 373.253906 L 649.78125 373.253906 Z M 607.238281 351.980469 L 628.507812 351.980469 L 628.507812 373.253906 L 607.238281 373.253906 Z M 564.695312 351.980469 L 585.964844 351.980469 L 585.964844 373.253906 L 564.695312 373.253906 Z M 373.253906 394.523438 L 458.339844 394.523438 L 458.339844 415.796875 L 373.253906 415.796875 Z M 394.523438 458.339844 L 437.066406 458.339844 L 437.066406 522.152344 L 394.523438 522.152344 Z M 373.253906 543.425781 L 458.339844 543.425781 L 458.339844 437.066406 L 373.253906 437.066406 Z M 373.253906 351.980469 L 458.339844 351.980469 L 458.339844 373.253906 L 373.253906 373.253906 Z M 266.894531 437.066406 L 266.894531 415.464844 C 292.570312 414.382812 309.769531 409.6875 318.328125 406.65625 C 324.269531 415.628906 328.257812 425.972656 329.835938 437.066406 Z M 266.894531 479.941406 L 266.894531 458.339844 L 329.835938 458.339844 C 328.257812 469.429688 324.269531 479.777344 318.328125 488.75 C 309.769531 485.71875 292.570312 481.023438 266.894531 479.941406 Z M 266.894531 501.214844 C 282.390625 501.917969 294.191406 504.039062 302.25 506.117188 C 292.238281 514.050781 280.105469 519.410156 266.894531 521.28125 Z M 245.625 501.214844 L 245.625 521.28125 C 232.414062 519.410156 220.28125 514.050781 210.269531 506.117188 C 218.328125 504.039062 230.128906 501.917969 245.625 501.214844 Z M 245.625 458.339844 L 245.625 479.941406 C 219.949219 481.023438 202.75 485.71875 194.191406 488.75 C 188.25 479.777344 184.261719 469.429688 182.683594 458.339844 Z M 245.625 415.464844 L 245.625 437.066406 L 182.683594 437.066406 C 184.261719 425.972656 188.25 415.628906 194.191406 406.65625 C 202.75 409.6875 219.949219 414.382812 245.625 415.464844 Z M 245.625 394.191406 C 230.128906 393.484375 218.328125 391.367188 210.269531 389.289062 C 220.28125 381.355469 232.414062 375.996094 245.625 374.125 Z M 266.894531 374.125 C 280.105469 375.996094 292.238281 381.355469 302.25 389.289062 C 294.191406 391.367188 282.390625 393.484375 266.894531 394.191406 Z M 256.257812 351.980469 C 203.496094 351.980469 160.539062 394.941406 160.539062 447.703125 C 160.539062 500.464844 203.496094 543.425781 256.257812 543.425781 C 309.023438 543.425781 351.980469 500.464844 351.980469 447.703125 C 351.980469 394.941406 309.023438 351.980469 256.257812 351.980469 Z M 139.265625 564.695312 L 139.265625 330.710938 L 479.609375 330.710938 L 479.609375 564.695312 Z M 479.609375 309.4375 L 139.265625 309.4375 C 127.550781 309.4375 117.996094 318.992188 117.996094 330.710938 L 117.996094 564.695312 C 117.996094 576.410156 127.550781 585.96875 139.265625 585.96875 L 479.609375 585.96875 C 491.324219 585.96875 500.882812 576.410156 500.882812 564.695312 L 500.882812 330.710938 C 500.882812 318.992188 491.324219 309.4375 479.609375 309.4375 Z M 500.882812 213.71875 L 479.609375 213.71875 C 479.609375 172.667969 446.207031 139.265625 405.160156 139.265625 L 405.160156 117.996094 C 457.921875 117.996094 500.882812 160.953125 500.882812 213.71875 Z M 660.417969 394.523438 L 543.425781 394.523438 L 543.425781 320.074219 C 543.425781 290.742188 519.578125 266.894531 490.246094 266.894531 L 187.335938 266.894531 C 200.671875 229.253906 236.691406 203.082031 277.53125 203.082031 C 311.597656 203.082031 343.339844 221.402344 360.414062 250.902344 L 378.859375 240.265625 C 360.457031 208.523438 328.175781 187.417969 292.320312 182.808594 C 306.03125 132.289062 351.730469 96.722656 405.160156 96.722656 C 469.679688 96.722656 522.152344 149.195312 522.152344 213.71875 L 543.425781 213.71875 C 543.425781 199.46875 541.261719 185.757812 537.234375 172.835938 C 542.800781 171.839844 548.367188 171.175781 554.058594 171.175781 C 606.824219 171.175781 649.78125 214.132812 649.78125 266.894531 C 649.78125 270.136719 649.613281 273.335938 649.28125 276.492188 L 648.660156 288.167969 L 660.417969 288.167969 C 689.746094 288.167969 713.59375 312.015625 713.59375 341.34375 C 713.59375 370.675781 689.746094 394.523438 660.417969 394.523438 Z M 522.152344 575.332031 C 522.152344 592.945312 507.859375 607.238281 490.246094 607.238281 L 128.632812 607.238281 C 111.015625 607.238281 96.722656 592.945312 96.722656 575.332031 L 96.722656 320.074219 C 96.722656 302.457031 111.015625 288.167969 128.632812 288.167969 L 490.246094 288.167969 C 507.859375 288.167969 522.152344 302.457031 522.152344 320.074219 Z M 377.324219 671.050781 L 241.550781 671.050781 L 262.824219 628.507812 L 356.050781 628.507812 Z M 445.875 713.59375 L 173.003906 713.59375 C 177.363281 701.214844 189.203125 692.324219 203.082031 692.324219 L 415.796875 692.324219 C 429.671875 692.324219 441.46875 701.214844 445.875 713.59375 Z M 671.050781 267.726562 C 671.050781 267.4375 671.050781 267.1875 671.050781 266.894531 C 671.050781 202.375 618.578125 149.902344 554.058594 149.902344 C 545.585938 149.902344 537.191406 150.816406 529.007812 152.601562 C 506.40625 106.984375 459.460938 75.453125 405.160156 75.453125 C 340.308594 75.453125 285.132812 119.824219 270.632812 182.101562 C 221.113281 185.050781 178.484375 219.324219 165.023438 266.894531 L 128.632812 266.894531 C 99.300781 266.894531 75.453125 290.742188 75.453125 320.074219 L 75.453125 575.332031 C 75.453125 604.664062 99.300781 628.507812 128.632812 628.507812 L 239.058594 628.507812 L 217.789062 671.050781 L 203.082031 671.050781 C 173.75 671.050781 149.902344 694.898438 149.902344 724.230469 L 149.902344 734.867188 L 468.972656 734.867188 L 468.972656 724.230469 C 468.972656 694.898438 445.125 671.050781 415.796875 671.050781 L 401.089844 671.050781 L 379.816406 628.507812 L 490.246094 628.507812 C 519.578125 628.507812 543.425781 604.664062 543.425781 575.332031 L 543.425781 415.796875 L 660.417969 415.796875 C 701.464844 415.796875 734.867188 382.394531 734.867188 341.34375 C 734.867188 304.039062 707.28125 273.042969 671.050781 267.726562 Z M 671.050781 267.726562 "/>
</clipPath>
<clipPath id="clip3">
  <path d="M 649.78125 351.980469 L 671.050781 351.980469 L 671.050781 373.253906 L 649.78125 373.253906 Z M 607.238281 351.980469 L 628.507812 351.980469 L 628.507812 373.253906 L 607.238281 373.253906 Z M 564.695312 351.980469 L 585.964844 351.980469 L 585.964844 373.253906 L 564.695312 373.253906 Z M 373.253906 394.523438 L 458.339844 394.523438 L 458.339844 415.796875 L 373.253906 415.796875 Z M 394.523438 458.339844 L 437.066406 458.339844 L 437.066406 522.152344 L 394.523438 522.152344 Z M 373.253906 543.425781 L 458.339844 543.425781 L 458.339844 437.066406 L 373.253906 437.066406 Z M 373.253906 351.980469 L 458.339844 351.980469 L 458.339844 373.253906 L 373.253906 373.253906 Z M 266.894531 437.066406 L 266.894531 415.464844 C 292.570312 414.382812 309.769531 409.6875 318.328125 406.65625 C 324.269531 415.628906 328.257812 425.972656 329.835938 437.066406 Z M 266.894531 479.941406 L 266.894531 458.339844 L 329.835938 458.339844 C 328.257812 469.429688 324.269531 479.777344 318.328125 488.75 C 309.769531 485.71875 292.570312 481.023438 266.894531 479.941406 Z M 266.894531 501.214844 C 282.390625 501.917969 294.191406 504.039062 302.25 506.117188 C 292.238281 514.050781 280.105469 519.410156 266.894531 521.28125 Z M 245.625 501.214844 L 245.625 521.28125 C 232.414062 519.410156 220.28125 514.050781 210.269531 506.117188 C 218.328125 504.039062 230.128906 501.917969 245.625 501.214844 Z M 245.625 458.339844 L 245.625 479.941406 C 219.949219 481.023438 202.75 485.71875 194.191406 488.75 C 188.25 479.777344 184.261719 469.429688 182.683594 458.339844 Z M 245.625 415.464844 L 245.625 437.066406 L 182.683594 437.066406 C 184.261719 425.972656 188.25 415.628906 194.191406 406.65625 C 202.75 409.6875 219.949219 414.382812 245.625 415.464844 Z M 245.625 394.191406 C 230.128906 393.484375 218.328125 391.367188 210.269531 389.289062 C 220.28125 381.355469 232.414062 375.996094 245.625 374.125 Z M 266.894531 374.125 C 280.105469 375.996094 292.238281 381.355469 302.25 389.289062 C 294.191406 391.367188 282.390625 393.484375 266.894531 394.191406 Z M 256.257812 351.980469 C 203.496094 351.980469 160.539062 394.941406 160.539062 447.703125 C 160.539062 500.464844 203.496094 543.425781 256.257812 543.425781 C 309.023438 543.425781 351.980469 500.464844 351.980469 447.703125 C 351.980469 394.941406 309.023438 351.980469 256.257812 351.980469 Z M 139.265625 564.695312 L 139.265625 330.710938 L 479.609375 330.710938 L 479.609375 564.695312 Z M 479.609375 309.4375 L 139.265625 309.4375 C 127.550781 309.4375 117.996094 318.992188 117.996094 330.710938 L 117.996094 564.695312 C 117.996094 576.410156 127.550781 585.96875 139.265625 585.96875 L 479.609375 585.96875 C 491.324219 585.96875 500.882812 576.410156 500.882812 564.695312 L 500.882812 330.710938 C 500.882812 318.992188 491.324219 309.4375 479.609375 309.4375 Z M 500.882812 213.71875 L 479.609375 213.71875 C 479.609375 172.667969 446.207031 139.265625 405.160156 139.265625 L 405.160156 117.996094 C 457.921875 117.996094 500.882812 160.953125 500.882812 213.71875 Z M 660.417969 394.523438 L 543.425781 394.523438 L 543.425781 320.074219 C 543.425781 290.742188 519.578125 266.894531 490.246094 266.894531 L 187.335938 266.894531 C 200.671875 229.253906 236.691406 203.082031 277.53125 203.082031 C 311.597656 203.082031 343.339844 221.402344 360.414062 250.902344 L 378.859375 240.265625 C 360.457031 208.523438 328.175781 187.417969 292.320312 182.808594 C 306.03125 132.289062 351.730469 96.722656 405.160156 96.722656 C 469.679688 96.722656 522.152344 149.195312 522.152344 213.71875 L 543.425781 213.71875 C 543.425781 199.46875 541.261719 185.757812 537.234375 172.835938 C 542.800781 171.839844 548.367188 171.175781 554.058594 171.175781 C 606.824219 171.175781 649.78125 214.132812 649.78125 266.894531 C 649.78125 270.136719 649.613281 273.335938 649.28125 276.492188 L 648.660156 288.167969 L 660.417969 288.167969 C 689.746094 288.167969 713.59375 312.015625 713.59375 341.34375 C 713.59375 370.675781 689.746094 394.523438 660.417969 394.523438 Z M 522.152344 575.332031 C 522.152344 592.945312 507.859375 607.238281 490.246094 607.238281 L 128.632812 607.238281 C 111.015625 607.238281 96.722656 592.945312 96.722656 575.332031 L 96.722656 320.074219 C 96.722656 302.457031 111.015625 288.167969 128.632812 288.167969 L 490.246094 288.167969 C 507.859375 288.167969 522.152344 302.457031 522.152344 320.074219 Z M 377.324219 671.050781 L 241.550781 671.050781 L 262.824219 628.507812 L 356.050781 628.507812 Z M 445.875 713.59375 L 173.003906 713.59375 C 177.363281 701.214844 189.203125 692.324219 203.082031 692.324219 L 415.796875 692.324219 C 429.671875 692.324219 441.46875 701.214844 445.875 713.59375 Z M 671.050781 267.726562 C 671.050781 267.4375 671.050781 267.1875 671.050781 266.894531 C 671.050781 202.375 618.578125 149.902344 554.058594 149.902344 C 545.585938 149.902344 537.191406 150.816406 529.007812 152.601562 C 506.40625 106.984375 459.460938 75.453125 405.160156 75.453125 C 340.308594 75.453125 285.132812 119.824219 270.632812 182.101562 C 221.113281 185.050781 178.484375 219.324219 165.023438 266.894531 L 128.632812 266.894531 C 99.300781 266.894531 75.453125 290.742188 75.453125 320.074219 L 75.453125 575.332031 C 75.453125 604.664062 99.300781 628.507812 128.632812 628.507812 L 239.058594 628.507812 L 217.789062 671.050781 L 203.082031 671.050781 C 173.75 671.050781 149.902344 694.898438 149.902344 724.230469 L 149.902344 734.867188 L 468.972656 734.867188 L 468.972656 724.230469 C 468.972656 694.898438 445.125 671.050781 415.796875 671.050781 L 401.089844 671.050781 L 379.816406 628.507812 L 490.246094 628.507812 C 519.578125 628.507812 543.425781 604.664062 543.425781 575.332031 L 543.425781 415.796875 L 660.417969 415.796875 C 701.464844 415.796875 734.867188 382.394531 734.867188 341.34375 C 734.867188 304.039062 707.28125 273.042969 671.050781 267.726562 "/>
</clipPath>
<linearGradient id="linear0" gradientUnits="userSpaceOnUse" x1="0.00024876" y1="0" x2="1" y2="0" gradientTransform="matrix(0,-659.413994,659.413994,0,405.15958,734.866832)">
<stop offset="0" style="stop-color:rgb(62.374878%,18.423462%,100%);stop-opacity:1;"/>
<stop offset="0.0078125" style="stop-color:rgb(62.184143%,18.614197%,99.996948%);stop-opacity:1;"/>
<stop offset="0.0117188" style="stop-color:rgb(61.79657%,19.00177%,99.795532%);stop-opacity:1;"/>
<stop offset="0.015625" style="stop-color:rgb(61.599731%,19.198608%,99.598694%);stop-opacity:1;"/>
<stop offset="0.0195312" style="stop-color:rgb(61.364746%,19.432068%,99.598694%);stop-opacity:1;"/>
<stop offset="0.0234375" style="stop-color:rgb(61.131287%,19.667053%,99.598694%);stop-opacity:1;"/>
<stop offset="0.0273438" style="stop-color:rgb(60.765076%,19.857788%,99.57428%);stop-opacity:1;"/>
<stop offset="0.03125" style="stop-color:rgb(60.398865%,20.048523%,99.549866%);stop-opacity:1;"/>
<stop offset="0.0351562" style="stop-color:rgb(60.198975%,20.239258%,99.37439%);stop-opacity:1;"/>
<stop offset="0.0390625" style="stop-color:rgb(59.999084%,20.429993%,99.198914%);stop-opacity:1;"/>
<stop offset="0.0429688" style="stop-color:rgb(59.793091%,20.619202%,99.198914%);stop-opacity:1;"/>
<stop offset="0.046875" style="stop-color:rgb(59.588623%,20.809937%,99.198914%);stop-opacity:1;"/>
<stop offset="0.0546875" style="stop-color:rgb(59.393311%,21.003723%,99.198914%);stop-opacity:1;"/>
<stop offset="0.0585938" style="stop-color:rgb(58.999634%,21.398926%,98.999023%);stop-opacity:1;"/>
<stop offset="0.0625" style="stop-color:rgb(58.799744%,21.598816%,98.799133%);stop-opacity:1;"/>
<stop offset="0.0664062" style="stop-color:rgb(58.572388%,21.826172%,98.799133%);stop-opacity:1;"/>
<stop offset="0.0703125" style="stop-color:rgb(58.345032%,22.053528%,98.799133%);stop-opacity:1;"/>
<stop offset="0.0742188" style="stop-color:rgb(57.971191%,22.239685%,98.780823%);stop-opacity:1;"/>
<stop offset="0.078125" style="stop-color:rgb(57.598877%,22.425842%,98.764038%);stop-opacity:1;"/>
<stop offset="0.0859375" style="stop-color:rgb(57.449341%,22.570801%,98.580933%);stop-opacity:1;"/>
<stop offset="0.0898438" style="stop-color:rgb(57.099915%,22.906494%,98.399353%);stop-opacity:1;"/>
<stop offset="0.09375" style="stop-color:rgb(56.90155%,23.098755%,98.399353%);stop-opacity:1;"/>
<stop offset="0.0976562" style="stop-color:rgb(56.710815%,23.298645%,98.399353%);stop-opacity:1;"/>
<stop offset="0.101562" style="stop-color:rgb(56.520081%,23.498535%,98.399353%);stop-opacity:1;"/>
<stop offset="0.105469" style="stop-color:rgb(56.278992%,23.728943%,98.199463%);stop-opacity:1;"/>
<stop offset="0.109375" style="stop-color:rgb(56.039429%,23.959351%,97.999573%);stop-opacity:1;"/>
<stop offset="0.117188" style="stop-color:rgb(55.848694%,24.14856%,97.999573%);stop-opacity:1;"/>
<stop offset="0.121094" style="stop-color:rgb(55.278015%,24.530029%,97.799683%);stop-opacity:1;"/>
<stop offset="0.125" style="stop-color:rgb(54.899597%,24.720764%,97.599792%);stop-opacity:1;"/>
<stop offset="0.128906" style="stop-color:rgb(54.699707%,24.911499%,97.599792%);stop-opacity:1;"/>
<stop offset="0.132812" style="stop-color:rgb(54.499817%,25.102234%,97.599792%);stop-opacity:1;"/>
<stop offset="0.136719" style="stop-color:rgb(54.307556%,25.300598%,97.599792%);stop-opacity:1;"/>
<stop offset="0.140625" style="stop-color:rgb(54.115295%,25.498962%,97.599792%);stop-opacity:1;"/>
<stop offset="0.144531" style="stop-color:rgb(53.874207%,25.730896%,97.44873%);stop-opacity:1;"/>
<stop offset="0.148438" style="stop-color:rgb(53.634644%,25.964355%,97.299194%);stop-opacity:1;"/>
<stop offset="0.15625" style="stop-color:rgb(53.443909%,26.15509%,97.299194%);stop-opacity:1;"/>
<stop offset="0.164062" style="stop-color:rgb(53.062439%,26.535034%,97.299194%);stop-opacity:1;"/>
<stop offset="0.167969" style="stop-color:rgb(52.682495%,26.916504%,97.099304%);stop-opacity:1;"/>
<stop offset="0.171875" style="stop-color:rgb(52.493286%,27.107239%,96.899414%);stop-opacity:1;"/>
<stop offset="0.175781" style="stop-color:rgb(52.151489%,27.302551%,96.899414%);stop-opacity:1;"/>
<stop offset="0.179688" style="stop-color:rgb(51.809692%,27.49939%,96.899414%);stop-opacity:1;"/>
<stop offset="0.1875" style="stop-color:rgb(51.618958%,27.648926%,96.899414%);stop-opacity:1;"/>
<stop offset="0.191406" style="stop-color:rgb(51.2146%,28.024292%,96.699524%);stop-opacity:1;"/>
<stop offset="0.195312" style="stop-color:rgb(50.999451%,28.250122%,96.499634%);stop-opacity:1;"/>
<stop offset="0.199219" style="stop-color:rgb(50.782776%,28.440857%,96.499634%);stop-opacity:1;"/>
<stop offset="0.203125" style="stop-color:rgb(50.567627%,28.631592%,96.499634%);stop-opacity:1;"/>
<stop offset="0.210938" style="stop-color:rgb(50.376892%,28.822327%,96.499634%);stop-opacity:1;"/>
<stop offset="0.214844" style="stop-color:rgb(49.992371%,29.205322%,96.30127%);stop-opacity:1;"/>
<stop offset="0.21875" style="stop-color:rgb(49.798584%,29.399109%,96.104431%);stop-opacity:1;"/>
<stop offset="0.222656" style="stop-color:rgb(49.411011%,29.598999%,96.101379%);stop-opacity:1;"/>
<stop offset="0.226562" style="stop-color:rgb(49.023438%,29.798889%,96.099854%);stop-opacity:1;"/>
<stop offset="0.230469" style="stop-color:rgb(48.81134%,30.026245%,96.099854%);stop-opacity:1;"/>
<stop offset="0.234375" style="stop-color:rgb(48.599243%,30.255127%,96.099854%);stop-opacity:1;"/>
<stop offset="0.238281" style="stop-color:rgb(48.399353%,30.445862%,95.898438%);stop-opacity:1;"/>
<stop offset="0.242188" style="stop-color:rgb(48.199463%,30.636597%,95.698547%);stop-opacity:1;"/>
<stop offset="0.246094" style="stop-color:rgb(47.991943%,30.827332%,95.698547%);stop-opacity:1;"/>
<stop offset="0.25" style="stop-color:rgb(47.78595%,31.018066%,95.698547%);stop-opacity:1;"/>
<stop offset="0.253906" style="stop-color:rgb(47.642517%,31.408691%,95.698547%);stop-opacity:1;"/>
<stop offset="0.257813" style="stop-color:rgb(47.499084%,31.799316%,95.698547%);stop-opacity:1;"/>
<stop offset="0.261719" style="stop-color:rgb(47.299194%,31.988525%,95.498657%);stop-opacity:1;"/>
<stop offset="0.265625" style="stop-color:rgb(47.099304%,32.17926%,95.298767%);stop-opacity:1;"/>
<stop offset="0.269531" style="stop-color:rgb(46.867371%,32.339478%,95.298767%);stop-opacity:1;"/>
<stop offset="0.273437" style="stop-color:rgb(46.636963%,32.499695%,95.298767%);stop-opacity:1;"/>
<stop offset="0.277344" style="stop-color:rgb(46.2677%,32.699585%,95.277405%);stop-opacity:1;"/>
<stop offset="0.28125" style="stop-color:rgb(45.899963%,32.899475%,95.256042%);stop-opacity:1;"/>
<stop offset="0.285156" style="stop-color:rgb(45.698547%,33.099365%,95.077515%);stop-opacity:1;"/>
<stop offset="0.289063" style="stop-color:rgb(45.498657%,33.299255%,94.898987%);stop-opacity:1;"/>
<stop offset="0.292969" style="stop-color:rgb(45.295715%,33.499146%,94.898987%);stop-opacity:1;"/>
<stop offset="0.296875" style="stop-color:rgb(45.094299%,33.699036%,94.898987%);stop-opacity:1;"/>
<stop offset="0.300781" style="stop-color:rgb(44.895935%,33.891296%,94.898987%);stop-opacity:1;"/>
<stop offset="0.304687" style="stop-color:rgb(44.699097%,34.085083%,94.898987%);stop-opacity:1;"/>
<stop offset="0.308594" style="stop-color:rgb(44.499207%,34.275818%,94.699097%);stop-opacity:1;"/>
<stop offset="0.3125" style="stop-color:rgb(44.299316%,34.466553%,94.499207%);stop-opacity:1;"/>
<stop offset="0.316406" style="stop-color:rgb(44.075012%,34.683228%,94.499207%);stop-opacity:1;"/>
<stop offset="0.320313" style="stop-color:rgb(43.850708%,34.899902%,94.499207%);stop-opacity:1;"/>
<stop offset="0.324219" style="stop-color:rgb(43.475342%,35.099792%,94.483948%);stop-opacity:1;"/>
<stop offset="0.328125" style="stop-color:rgb(43.099976%,35.299683%,94.470215%);stop-opacity:1;"/>
<stop offset="0.332031" style="stop-color:rgb(42.89856%,35.499573%,94.284058%);stop-opacity:1;"/>
<stop offset="0.335937" style="stop-color:rgb(42.698669%,35.699463%,94.099426%);stop-opacity:1;"/>
<stop offset="0.34375" style="stop-color:rgb(42.552185%,35.894775%,94.099426%);stop-opacity:1;"/>
<stop offset="0.351563" style="stop-color:rgb(42.216492%,36.280823%,94.099426%);stop-opacity:1;"/>
<stop offset="0.355469" style="stop-color:rgb(41.786194%,36.685181%,93.899536%);stop-opacity:1;"/>
<stop offset="0.359375" style="stop-color:rgb(41.545105%,36.898804%,93.699646%);stop-opacity:1;"/>
<stop offset="0.363281" style="stop-color:rgb(41.35437%,37.098694%,93.699646%);stop-opacity:1;"/>
<stop offset="0.367187" style="stop-color:rgb(41.165161%,37.298584%,93.699646%);stop-opacity:1;"/>
<stop offset="0.371094" style="stop-color:rgb(40.782166%,37.44812%,93.499756%);stop-opacity:1;"/>
<stop offset="0.375" style="stop-color:rgb(40.39917%,37.599182%,93.299866%);stop-opacity:1;"/>
<stop offset="0.378906" style="stop-color:rgb(40.200806%,37.797546%,93.299866%);stop-opacity:1;"/>
<stop offset="0.382813" style="stop-color:rgb(40.002441%,37.995911%,93.299866%);stop-opacity:1;"/>
<stop offset="0.390625" style="stop-color:rgb(39.811707%,38.186646%,93.299866%);stop-opacity:1;"/>
<stop offset="0.394531" style="stop-color:rgb(39.379883%,38.587952%,93.09845%);stop-opacity:1;"/>
<stop offset="0.398437" style="stop-color:rgb(39.14032%,38.798523%,92.89856%);stop-opacity:1;"/>
<stop offset="0.402344" style="stop-color:rgb(38.949585%,38.998413%,92.89856%);stop-opacity:1;"/>
<stop offset="0.40625" style="stop-color:rgb(38.75885%,39.199829%,92.89856%);stop-opacity:1;"/>
<stop offset="0.410156" style="stop-color:rgb(38.568115%,39.399719%,92.89856%);stop-opacity:1;"/>
<stop offset="0.414063" style="stop-color:rgb(38.378906%,39.599609%,92.89856%);stop-opacity:1;"/>
<stop offset="0.417969" style="stop-color:rgb(38.188171%,39.7995%,92.698669%);stop-opacity:1;"/>
<stop offset="0.421875" style="stop-color:rgb(37.997437%,39.99939%,92.498779%);stop-opacity:1;"/>
<stop offset="0.425781" style="stop-color:rgb(37.654114%,40.190125%,92.498779%);stop-opacity:1;"/>
<stop offset="0.429687" style="stop-color:rgb(37.312317%,40.382385%,92.498779%);stop-opacity:1;"/>
<stop offset="0.4375" style="stop-color:rgb(37.123108%,40.57312%,92.498779%);stop-opacity:1;"/>
<stop offset="0.441406" style="stop-color:rgb(36.717224%,40.98053%,92.349243%);stop-opacity:1;"/>
<stop offset="0.445313" style="stop-color:rgb(36.499023%,41.19873%,92.199707%);stop-opacity:1;"/>
<stop offset="0.449219" style="stop-color:rgb(36.2854%,41.398621%,92.199707%);stop-opacity:1;"/>
<stop offset="0.453125" style="stop-color:rgb(36.073303%,41.598511%,92.199707%);stop-opacity:1;"/>
<stop offset="0.457031" style="stop-color:rgb(35.882568%,41.798401%,92.199707%);stop-opacity:1;"/>
<stop offset="0.460937" style="stop-color:rgb(35.691833%,41.999817%,92.199707%);stop-opacity:1;"/>
<stop offset="0.464844" style="stop-color:rgb(35.494995%,42.193604%,92.004395%);stop-opacity:1;"/>
<stop offset="0.46875" style="stop-color:rgb(35.299683%,42.38739%,91.810608%);stop-opacity:1;"/>
<stop offset="0.472656" style="stop-color:rgb(34.915161%,42.530823%,91.804504%);stop-opacity:1;"/>
<stop offset="0.476563" style="stop-color:rgb(34.53064%,42.675781%,91.799927%);stop-opacity:1;"/>
<stop offset="0.480469" style="stop-color:rgb(34.313965%,42.887878%,91.799927%);stop-opacity:1;"/>
<stop offset="0.484375" style="stop-color:rgb(34.098816%,43.099976%,91.799927%);stop-opacity:1;"/>
<stop offset="0.488281" style="stop-color:rgb(33.898926%,43.299866%,91.598511%);stop-opacity:1;"/>
<stop offset="0.492187" style="stop-color:rgb(33.699036%,43.499756%,91.398621%);stop-opacity:1;"/>
<stop offset="0.496094" style="stop-color:rgb(33.493042%,43.70575%,91.398621%);stop-opacity:1;"/>
<stop offset="0.5" style="stop-color:rgb(33.287048%,43.911743%,91.398621%);stop-opacity:1;"/>
<stop offset="0.507812" style="stop-color:rgb(33.093262%,44.10553%,91.398621%);stop-opacity:1;"/>
<stop offset="0.511719" style="stop-color:rgb(32.699585%,44.499207%,91.19873%);stop-opacity:1;"/>
<stop offset="0.515625" style="stop-color:rgb(32.499695%,44.699097%,90.99884%);stop-opacity:1;"/>
<stop offset="0.519531" style="stop-color:rgb(32.321167%,44.926453%,90.99884%);stop-opacity:1;"/>
<stop offset="0.523438" style="stop-color:rgb(32.144165%,45.155334%,90.99884%);stop-opacity:1;"/>
<stop offset="0.527344" style="stop-color:rgb(31.771851%,45.344543%,90.98053%);stop-opacity:1;"/>
<stop offset="0.53125" style="stop-color:rgb(31.399536%,45.535278%,90.962219%);stop-opacity:1;"/>
<stop offset="0.535156" style="stop-color:rgb(31.199646%,45.726013%,90.78064%);stop-opacity:1;"/>
<stop offset="0.539062" style="stop-color:rgb(30.999756%,45.916748%,90.59906%);stop-opacity:1;"/>
<stop offset="0.542969" style="stop-color:rgb(30.799866%,46.107483%,90.59906%);stop-opacity:1;"/>
<stop offset="0.546875" style="stop-color:rgb(30.599976%,46.299744%,90.59906%);stop-opacity:1;"/>
<stop offset="0.550781" style="stop-color:rgb(30.39856%,46.499634%,90.59906%);stop-opacity:1;"/>
<stop offset="0.554688" style="stop-color:rgb(30.198669%,46.699524%,90.59906%);stop-opacity:1;"/>
<stop offset="0.558594" style="stop-color:rgb(29.998779%,46.899414%,90.39917%);stop-opacity:1;"/>
<stop offset="0.5625" style="stop-color:rgb(29.798889%,47.099304%,90.19928%);stop-opacity:1;"/>
<stop offset="0.566406" style="stop-color:rgb(29.577637%,47.314453%,90.19928%);stop-opacity:1;"/>
<stop offset="0.570312" style="stop-color:rgb(29.35791%,47.531128%,90.19928%);stop-opacity:1;"/>
<stop offset="0.574219" style="stop-color:rgb(28.977966%,47.676086%,90.187073%);stop-opacity:1;"/>
<stop offset="0.578125" style="stop-color:rgb(28.599548%,47.822571%,90.176392%);stop-opacity:1;"/>
<stop offset="0.582031" style="stop-color:rgb(28.399658%,48.013306%,89.987183%);stop-opacity:1;"/>
<stop offset="0.585938" style="stop-color:rgb(28.199768%,48.204041%,89.7995%);stop-opacity:1;"/>
<stop offset="0.589844" style="stop-color:rgb(28.005981%,48.400879%,89.7995%);stop-opacity:1;"/>
<stop offset="0.59375" style="stop-color:rgb(27.813721%,48.599243%,89.7995%);stop-opacity:1;"/>
<stop offset="0.597656" style="stop-color:rgb(27.668762%,48.799133%,89.7995%);stop-opacity:1;"/>
<stop offset="0.601562" style="stop-color:rgb(27.52533%,48.999023%,89.7995%);stop-opacity:1;"/>
<stop offset="0.605469" style="stop-color:rgb(27.288818%,49.221802%,89.599609%);stop-opacity:1;"/>
<stop offset="0.609375" style="stop-color:rgb(27.052307%,49.446106%,89.399719%);stop-opacity:1;"/>
<stop offset="0.617188" style="stop-color:rgb(26.861572%,49.636841%,89.399719%);stop-opacity:1;"/>
<stop offset="0.621094" style="stop-color:rgb(26.28479%,50.018311%,89.199829%);stop-opacity:1;"/>
<stop offset="0.625" style="stop-color:rgb(25.898743%,50.209045%,88.999939%);stop-opacity:1;"/>
<stop offset="0.632812" style="stop-color:rgb(25.70343%,50.404358%,88.999939%);stop-opacity:1;"/>
<stop offset="0.636719" style="stop-color:rgb(25.317383%,50.799561%,88.999939%);stop-opacity:1;"/>
<stop offset="0.640625" style="stop-color:rgb(25.128174%,50.999451%,88.999939%);stop-opacity:1;"/>
<stop offset="0.644531" style="stop-color:rgb(24.887085%,51.225281%,88.798523%);stop-opacity:1;"/>
<stop offset="0.648438" style="stop-color:rgb(24.645996%,51.451111%,88.598633%);stop-opacity:1;"/>
<stop offset="0.65625" style="stop-color:rgb(24.455261%,51.641846%,88.598633%);stop-opacity:1;"/>
<stop offset="0.664062" style="stop-color:rgb(24.075317%,52.020264%,88.598633%);stop-opacity:1;"/>
<stop offset="0.667969" style="stop-color:rgb(23.690796%,52.354431%,88.400269%);stop-opacity:1;"/>
<stop offset="0.671875" style="stop-color:rgb(23.498535%,52.49939%,88.20343%);stop-opacity:1;"/>
<stop offset="0.675781" style="stop-color:rgb(23.109436%,52.69928%,88.200378%);stop-opacity:1;"/>
<stop offset="0.679688" style="stop-color:rgb(22.721863%,52.89917%,88.198853%);stop-opacity:1;"/>
<stop offset="0.683594" style="stop-color:rgb(22.575378%,53.09906%,88.198853%);stop-opacity:1;"/>
<stop offset="0.6875" style="stop-color:rgb(22.43042%,53.29895%,88.198853%);stop-opacity:1;"/>
<stop offset="0.691406" style="stop-color:rgb(22.213745%,53.518677%,87.998962%);stop-opacity:1;"/>
<stop offset="0.695312" style="stop-color:rgb(21.998596%,53.738403%,87.799072%);stop-opacity:1;"/>
<stop offset="0.699219" style="stop-color:rgb(21.788025%,53.929138%,87.799072%);stop-opacity:1;"/>
<stop offset="0.703125" style="stop-color:rgb(21.578979%,54.119873%,87.799072%);stop-opacity:1;"/>
<stop offset="0.710938" style="stop-color:rgb(21.388245%,54.309082%,87.799072%);stop-opacity:1;"/>
<stop offset="0.714844" style="stop-color:rgb(20.999146%,54.699707%,87.65564%);stop-opacity:1;"/>
<stop offset="0.71875" style="stop-color:rgb(20.799255%,54.899597%,87.512207%);stop-opacity:1;"/>
<stop offset="0.722656" style="stop-color:rgb(20.417786%,55.099487%,87.506104%);stop-opacity:1;"/>
<stop offset="0.726562" style="stop-color:rgb(20.036316%,55.299377%,87.5%);stop-opacity:1;"/>
<stop offset="0.730469" style="stop-color:rgb(19.818115%,55.52063%,87.5%);stop-opacity:1;"/>
<stop offset="0.734375" style="stop-color:rgb(19.599915%,55.743408%,87.5%);stop-opacity:1;"/>
<stop offset="0.738281" style="stop-color:rgb(19.398499%,55.934143%,87.298584%);stop-opacity:1;"/>
<stop offset="0.742188" style="stop-color:rgb(19.198608%,56.124878%,87.098694%);stop-opacity:1;"/>
<stop offset="0.746094" style="stop-color:rgb(18.995667%,56.314087%,87.098694%);stop-opacity:1;"/>
<stop offset="0.75" style="stop-color:rgb(18.792725%,56.504822%,87.098694%);stop-opacity:1;"/>
<stop offset="0.753906" style="stop-color:rgb(18.595886%,56.895447%,87.098694%);stop-opacity:1;"/>
<stop offset="0.757812" style="stop-color:rgb(18.399048%,57.286072%,87.098694%);stop-opacity:1;"/>
<stop offset="0.761719" style="stop-color:rgb(18.199158%,57.43103%,86.898804%);stop-opacity:1;"/>
<stop offset="0.765625" style="stop-color:rgb(17.999268%,57.575989%,86.698914%);stop-opacity:1;"/>
<stop offset="0.769531" style="stop-color:rgb(17.781067%,57.78656%,86.698914%);stop-opacity:1;"/>
<stop offset="0.773438" style="stop-color:rgb(17.562866%,57.998657%,86.698914%);stop-opacity:1;"/>
<stop offset="0.777344" style="stop-color:rgb(17.230225%,58.198547%,86.683655%);stop-opacity:1;"/>
<stop offset="0.78125" style="stop-color:rgb(16.899109%,58.399963%,86.668396%);stop-opacity:1;"/>
<stop offset="0.785156" style="stop-color:rgb(16.699219%,58.599854%,86.483765%);stop-opacity:1;"/>
<stop offset="0.789062" style="stop-color:rgb(16.499329%,58.799744%,86.299133%);stop-opacity:1;"/>
<stop offset="0.792969" style="stop-color:rgb(16.30249%,58.995056%,86.299133%);stop-opacity:1;"/>
<stop offset="0.796875" style="stop-color:rgb(16.107178%,59.191895%,86.299133%);stop-opacity:1;"/>
<stop offset="0.800781" style="stop-color:rgb(15.90271%,59.382629%,86.299133%);stop-opacity:1;"/>
<stop offset="0.804688" style="stop-color:rgb(15.699768%,59.573364%,86.299133%);stop-opacity:1;"/>
<stop offset="0.808594" style="stop-color:rgb(15.499878%,59.762573%,86.099243%);stop-opacity:1;"/>
<stop offset="0.8125" style="stop-color:rgb(15.299988%,59.953308%,85.899353%);stop-opacity:1;"/>
<stop offset="0.816406" style="stop-color:rgb(15.081787%,60.176086%,85.899353%);stop-opacity:1;"/>
<stop offset="0.820312" style="stop-color:rgb(14.863586%,60.398865%,85.899353%);stop-opacity:1;"/>
<stop offset="0.824219" style="stop-color:rgb(14.480591%,60.598755%,85.890198%);stop-opacity:1;"/>
<stop offset="0.828125" style="stop-color:rgb(14.099121%,60.798645%,85.882568%);stop-opacity:1;"/>
<stop offset="0.832031" style="stop-color:rgb(13.899231%,60.997009%,85.690308%);stop-opacity:1;"/>
<stop offset="0.835938" style="stop-color:rgb(13.700867%,61.196899%,85.499573%);stop-opacity:1;"/>
<stop offset="0.84375" style="stop-color:rgb(13.510132%,61.387634%,85.499573%);stop-opacity:1;"/>
<stop offset="0.851562" style="stop-color:rgb(13.130188%,61.769104%,85.499573%);stop-opacity:1;"/>
<stop offset="0.855469" style="stop-color:rgb(12.702942%,62.179565%,85.299683%);stop-opacity:1;"/>
<stop offset="0.859375" style="stop-color:rgb(12.467957%,62.399292%,85.099792%);stop-opacity:1;"/>
<stop offset="0.867188" style="stop-color:rgb(12.321472%,62.548828%,85.099792%);stop-opacity:1;"/>
<stop offset="0.871094" style="stop-color:rgb(11.787415%,62.89978%,84.898376%);stop-opacity:1;"/>
<stop offset="0.875" style="stop-color:rgb(11.399841%,63.09967%,84.698486%);stop-opacity:1;"/>
<stop offset="0.882812" style="stop-color:rgb(11.207581%,63.290405%,84.698486%);stop-opacity:1;"/>
<stop offset="0.890625" style="stop-color:rgb(10.824585%,63.673401%,84.698486%);stop-opacity:1;"/>
<stop offset="0.894531" style="stop-color:rgb(10.392761%,64.080811%,84.498596%);stop-opacity:1;"/>
<stop offset="0.898438" style="stop-color:rgb(10.153198%,64.299011%,84.298706%);stop-opacity:1;"/>
<stop offset="0.902344" style="stop-color:rgb(9.962463%,64.498901%,84.298706%);stop-opacity:1;"/>
<stop offset="0.90625" style="stop-color:rgb(9.771729%,64.698792%,84.298706%);stop-opacity:1;"/>
<stop offset="0.910156" style="stop-color:rgb(9.580994%,64.898682%,84.298706%);stop-opacity:1;"/>
<stop offset="0.914062" style="stop-color:rgb(9.390259%,65.098572%,84.298706%);stop-opacity:1;"/>
<stop offset="0.921875" style="stop-color:rgb(9.194946%,65.293884%,84.103394%);stop-opacity:1;"/>
<stop offset="0.925781" style="stop-color:rgb(8.613586%,65.678406%,83.903503%);stop-opacity:1;"/>
<stop offset="0.929688" style="stop-color:rgb(8.229065%,65.869141%,83.898926%);stop-opacity:1;"/>
<stop offset="0.9375" style="stop-color:rgb(8.03833%,66.059875%,83.898926%);stop-opacity:1;"/>
<stop offset="0.941406" style="stop-color:rgb(7.673645%,66.474915%,83.699036%);stop-opacity:1;"/>
<stop offset="0.945312" style="stop-color:rgb(7.499695%,66.699219%,83.499146%);stop-opacity:1;"/>
<stop offset="0.949219" style="stop-color:rgb(7.292175%,66.899109%,83.499146%);stop-opacity:1;"/>
<stop offset="0.953125" style="stop-color:rgb(7.086182%,67.098999%,83.499146%);stop-opacity:1;"/>
<stop offset="0.957031" style="stop-color:rgb(6.892395%,67.295837%,83.499146%);stop-opacity:1;"/>
<stop offset="0.960938" style="stop-color:rgb(6.698608%,67.494202%,83.499146%);stop-opacity:1;"/>
<stop offset="0.964844" style="stop-color:rgb(6.498718%,67.637634%,83.311462%);stop-opacity:1;"/>
<stop offset="0.96875" style="stop-color:rgb(6.298828%,67.781067%,83.123779%);stop-opacity:1;"/>
<stop offset="0.972656" style="stop-color:rgb(5.92041%,67.96875%,83.111572%);stop-opacity:1;"/>
<stop offset="0.976562" style="stop-color:rgb(5.541992%,68.156433%,83.099365%);stop-opacity:1;"/>
<stop offset="0.980469" style="stop-color:rgb(5.32074%,68.377686%,83.099365%);stop-opacity:1;"/>
<stop offset="0.984375" style="stop-color:rgb(5.099487%,68.598938%,83.099365%);stop-opacity:1;"/>
<stop offset="0.988281" style="stop-color:rgb(4.899597%,68.798828%,82.899475%);stop-opacity:1;"/>
<stop offset="0.992188" style="stop-color:rgb(4.699707%,68.998718%,82.699585%);stop-opacity:1;"/>
<stop offset="0.996094" style="stop-color:rgb(4.499817%,69.198608%,82.699585%);stop-opacity:1;"/>
<stop offset="1" style="stop-color:rgb(4.299927%,69.398499%,82.699585%);stop-opacity:1;"/>
</linearGradient>
</defs>
<g id="surface1">
<g clip-path="url(#clip1)" clip-rule="nonzero">
<g clip-path="url(#clip2)" clip-rule="nonzero">
<g clip-path="url(#clip3)" clip-rule="nonzero">
<path style=" stroke:none;fill-rule:nonzero;fill:url(#linear0);" d="M 75.453125 734.703125 L 734.703125 734.703125 L 734.703125 75.453125 L 75.453125 75.453125 Z M 75.453125 734.703125 "/>
</g>
</g>
</g>
</g>
</svg>
